#Comment line ignore any data following # character 
#Hierarchical Translation and Rotation (.htr) file 
[Header]	
#Header keywords are followed by a single value 
FileType HTR		#Single word string
DataType HTRS		#Translation followed by rotation and scale data
FileVersion 1		#integer
NumSegments 84		#integer
NumFrames 2		#integer
DataFrameRate 30		#integer, data frame rate in this file
EulerRotationOrder ZYX
CalibrationUnits mm
RotationUnits Degrees
GlobalAxisofGravity Y
BoneLengthAxis Y
ScaleFactor 1.00
[SegmentNames&Hierarchy]
#CHILD	PARENT
MASTER GLOBAL
root MASTER
chest root
L_mid_tent01 root
R_mid_tent01 root
spine01 root
Bip01_Neck chest
L_humerus chest
R_humerus chest
weapon_bone chest
Bip01_Head Bip01_Neck
eye_left_bone Bip01_Head
eye_right_bone Bip01_Head
L_forearm L_humerus
L_front_hand L_forearm
L_weapon_bone L_forearm
L_front_hand01_01 L_front_hand
L_front_hand02_01 L_front_hand
L_front_hand03_01 L_front_hand
L_front_hand01_02 L_front_hand01_01
L_front_hand02_02 L_front_hand02_01
L_front_hand03_02 L_front_hand03_01
R_forearm R_humerus
R_front_hand R_forearm
R_weapon_bone R_forearm
R_front_hand01_01 R_front_hand
R_front_hand02_01 R_front_hand
R_front_hand03_01 R_front_hand
R_front_hand01_02 R_front_hand01_01
R_front_hand02_02 R_front_hand02_01
R_front_hand03_02 R_front_hand03_01
null_rope01_connect L_mid_tent01
Rope1_Seg01 null_rope01_connect
Rope1_Seg02 Rope1_Seg01
Rope1_Seg03 Rope1_Seg02
Rope1_Seg04 Rope1_Seg03
Rope1_Seg05 Rope1_Seg04
Rope1_Seg06 Rope1_Seg05
Rope1_Seg07 Rope1_Seg06
Rope1_Seg09 Rope1_Seg07
L_mid_hand01 Rope1_Seg09
L_mid_hand02 Rope1_Seg09
L_mid_hand03 Rope1_Seg09
null_rope02_connect R_mid_tent01
Rope2_Seg01 null_rope02_connect
Rope2_Seg02 Rope2_Seg01
Rope2_Seg03 Rope2_Seg02
Rope2_Seg04 Rope2_Seg03
Rope2_Seg05 Rope2_Seg04
Rope2_Seg06 Rope2_Seg05
Rope2_Seg07 Rope2_Seg06
Rope2_Seg09 Rope2_Seg07
R_mid_hand01 Rope2_Seg09
R_mid_hand02 Rope2_Seg09
R_mid_hand03 Rope2_Seg09
spine02 spine01
spine03 spine02
pelvis spine03
null_rope03_connect pelvis
null_rope04_connect pelvis
Rope3_Seg01 null_rope03_connect
Rope3_Seg02 Rope3_Seg01
Rope3_Seg03 Rope3_Seg02
Rope3_Seg04 Rope3_Seg03
Rope3_Seg05 Rope3_Seg04
Rope3_Seg06 Rope3_Seg05
Rope3_Seg07 Rope3_Seg06
Rope3_Seg08 Rope3_Seg07
Rope3_Seg09 Rope3_Seg08
R_rear_hand01 Rope3_Seg09
R_rear_hand02 Rope3_Seg09
R_rear_hand03 Rope3_Seg09
Rope4_Seg01 null_rope04_connect
Rope4_Seg02 Rope4_Seg01
Rope4_Seg03 Rope4_Seg02
Rope4_Seg04 Rope4_Seg03
Rope4_Seg05 Rope4_Seg04
Rope4_Seg06 Rope4_Seg05
Rope4_Seg07 Rope4_Seg06
Rope4_Seg08 Rope4_Seg07
Rope4_Seg09 Rope4_Seg08
L_rear_hand01 Rope4_Seg09
L_rear_hand02 Rope4_Seg09
L_rear_hand03 Rope4_Seg09
[BasePosition]
#SegmentName Tx, Ty, Tz, Rx, Ry, Rz, BoneLength
MASTER 0.000000 0.000000 0.000000 -90.000000 0.000000 0.000000 10.000000 
root 0.000000 0.000000 0.000000 0.000000 0.000000 0.000000 10.000000 
chest 0.000000 0.000000 0.000000 0.000000 0.000000 0.000000 10.000000 
L_mid_tent01 0.000000 0.000000 0.000000 0.000000 0.000000 0.000000 10.000000 
R_mid_tent01 0.000000 0.000000 0.000000 0.000000 0.000000 0.000000 10.000000 
spine01 0.000000 0.000000 0.000000 0.000000 0.000000 0.000000 10.000000 
Bip01_Neck 0.000000 0.000000 0.000000 0.000000 0.000000 0.000000 10.000000 
L_humerus 0.000000 0.000000 0.000000 0.000000 0.000000 0.000000 10.000000 
R_humerus 0.000000 0.000000 0.000000 0.000000 0.000000 0.000000 10.000000 
weapon_bone 0.000000 0.000000 0.000000 0.000000 0.000000 0.000000 10.000000 
Bip01_Head 0.000000 0.000000 0.000000 0.000000 0.000000 0.000000 10.000000 
eye_left_bone 0.000000 0.000000 0.000000 0.000000 0.000000 0.000000 10.000000 
eye_right_bone 0.000000 0.000000 0.000000 0.000000 0.000000 0.000000 10.000000 
L_forearm 0.000000 0.000000 0.000000 0.000000 0.000000 0.000000 10.000000 
L_front_hand 0.000000 0.000000 0.000000 0.000000 0.000000 0.000000 10.000000 
L_weapon_bone 0.000000 0.000000 0.000000 0.000000 0.000000 0.000000 10.000000 
L_front_hand01_01 0.000000 0.000000 0.000000 0.000000 0.000000 0.000000 10.000000 
L_front_hand02_01 0.000000 0.000000 0.000000 0.000000 0.000000 0.000000 10.000000 
L_front_hand03_01 0.000000 0.000000 0.000000 0.000000 0.000000 0.000000 10.000000 
L_front_hand01_02 0.000000 0.000000 0.000000 0.000000 0.000000 0.000000 10.000000 
L_front_hand02_02 0.000000 0.000000 0.000000 0.000000 0.000000 0.000000 10.000000 
L_front_hand03_02 0.000000 0.000000 0.000000 0.000000 0.000000 0.000000 10.000000 
R_forearm 0.000000 0.000000 0.000000 0.000000 0.000000 0.000000 10.000000 
R_front_hand 0.000000 0.000000 0.000000 0.000000 0.000000 0.000000 10.000000 
R_weapon_bone 0.000000 0.000000 0.000000 0.000000 0.000000 0.000000 10.000000 
R_front_hand01_01 0.000000 0.000000 0.000000 0.000000 0.000000 0.000000 10.000000 
R_front_hand02_01 0.000000 0.000000 0.000000 0.000000 0.000000 0.000000 10.000000 
R_front_hand03_01 0.000000 0.000000 0.000000 0.000000 0.000000 0.000000 10.000000 
R_front_hand01_02 0.000000 0.000000 0.000000 0.000000 0.000000 0.000000 10.000000 
R_front_hand02_02 0.000000 0.000000 0.000000 0.000000 0.000000 0.000000 10.000000 
R_front_hand03_02 0.000000 0.000000 0.000000 0.000000 0.000000 0.000000 10.000000 
null_rope01_connect 0.000000 0.000000 0.000000 0.000000 0.000000 0.000000 10.000000 
Rope1_Seg01 0.000000 0.000000 0.000000 0.000000 0.000000 0.000000 10.000000 
Rope1_Seg02 0.000000 0.000000 0.000000 0.000000 0.000000 0.000000 10.000000 
Rope1_Seg03 0.000000 0.000000 0.000000 0.000000 0.000000 0.000000 10.000000 
Rope1_Seg04 0.000000 0.000000 0.000000 0.000000 0.000000 0.000000 10.000000 
Rope1_Seg05 0.000000 0.000000 0.000000 0.000000 0.000000 0.000000 10.000000 
Rope1_Seg06 0.000000 0.000000 0.000000 0.000000 0.000000 0.000000 10.000000 
Rope1_Seg07 0.000000 0.000000 0.000000 0.000000 0.000000 0.000000 10.000000 
Rope1_Seg09 0.000000 0.000000 0.000000 0.000000 0.000000 0.000000 10.000000 
L_mid_hand01 0.000000 0.000000 0.000000 0.000000 0.000000 0.000000 10.000000 
L_mid_hand02 0.000000 0.000000 0.000000 0.000000 0.000000 0.000000 10.000000 
L_mid_hand03 0.000000 0.000000 0.000000 0.000000 0.000000 0.000000 10.000000 
null_rope02_connect 0.000000 0.000000 0.000000 0.000000 0.000000 0.000000 10.000000 
Rope2_Seg01 0.000000 0.000000 0.000000 0.000000 0.000000 0.000000 10.000000 
Rope2_Seg02 0.000000 0.000000 0.000000 0.000000 0.000000 0.000000 10.000000 
Rope2_Seg03 0.000000 0.000000 0.000000 0.000000 0.000000 0.000000 10.000000 
Rope2_Seg04 0.000000 0.000000 0.000000 0.000000 0.000000 0.000000 10.000000 
Rope2_Seg05 0.000000 0.000000 0.000000 0.000000 0.000000 0.000000 10.000000 
Rope2_Seg06 0.000000 0.000000 0.000000 0.000000 0.000000 0.000000 10.000000 
Rope2_Seg07 0.000000 0.000000 0.000000 0.000000 0.000000 0.000000 10.000000 
Rope2_Seg09 0.000000 0.000000 0.000000 0.000000 0.000000 0.000000 10.000000 
R_mid_hand01 0.000000 0.000000 0.000000 0.000000 0.000000 0.000000 10.000000 
R_mid_hand02 0.000000 0.000000 0.000000 0.000000 0.000000 0.000000 10.000000 
R_mid_hand03 0.000000 0.000000 0.000000 0.000000 0.000000 0.000000 10.000000 
spine02 0.000000 0.000000 0.000000 0.000000 0.000000 0.000000 10.000000 
spine03 0.000000 0.000000 0.000000 0.000000 0.000000 0.000000 10.000000 
pelvis 0.000000 0.000000 0.000000 0.000000 0.000000 0.000000 10.000000 
null_rope03_connect 0.000000 0.000000 0.000000 0.000000 0.000000 0.000000 10.000000 
null_rope04_connect 0.000000 0.000000 0.000000 0.000000 0.000000 0.000000 10.000000 
Rope3_Seg01 0.000000 0.000000 0.000000 0.000000 0.000000 0.000000 10.000000 
Rope3_Seg02 0.000000 0.000000 0.000000 0.000000 0.000000 0.000000 10.000000 
Rope3_Seg03 0.000000 0.000000 0.000000 0.000000 0.000000 0.000000 10.000000 
Rope3_Seg04 0.000000 0.000000 0.000000 0.000000 0.000000 0.000000 10.000000 
Rope3_Seg05 0.000000 0.000000 0.000000 0.000000 0.000000 0.000000 10.000000 
Rope3_Seg06 0.000000 0.000000 0.000000 0.000000 0.000000 0.000000 10.000000 
Rope3_Seg07 0.000000 0.000000 0.000000 0.000000 0.000000 0.000000 10.000000 
Rope3_Seg08 0.000000 0.000000 0.000000 0.000000 0.000000 0.000000 10.000000 
Rope3_Seg09 0.000000 0.000000 0.000000 0.000000 0.000000 0.000000 10.000000 
R_rear_hand01 0.000000 0.000000 0.000000 0.000000 0.000000 0.000000 10.000000 
R_rear_hand02 0.000000 0.000000 0.000000 0.000000 0.000000 0.000000 10.000000 
R_rear_hand03 0.000000 0.000000 0.000000 0.000000 0.000000 0.000000 10.000000 
Rope4_Seg01 0.000000 0.000000 0.000000 0.000000 0.000000 0.000000 10.000000 
Rope4_Seg02 0.000000 0.000000 0.000000 0.000000 0.000000 0.000000 10.000000 
Rope4_Seg03 0.000000 0.000000 0.000000 0.000000 0.000000 0.000000 10.000000 
Rope4_Seg04 0.000000 0.000000 0.000000 0.000000 0.000000 0.000000 10.000000 
Rope4_Seg05 0.000000 0.000000 0.000000 0.000000 0.000000 0.000000 10.000000 
Rope4_Seg06 0.000000 0.000000 0.000000 0.000000 0.000000 0.000000 10.000000 
Rope4_Seg07 0.000000 0.000000 0.000000 0.000000 0.000000 0.000000 10.000000 
Rope4_Seg08 0.000000 0.000000 0.000000 0.000000 0.000000 0.000000 10.000000 
Rope4_Seg09 0.000000 0.000000 0.000000 0.000000 0.000000 0.000000 10.000000 
L_rear_hand01 0.000000 0.000000 0.000000 0.000000 0.000000 0.000000 10.000000 
L_rear_hand02 0.000000 0.000000 0.000000 0.000000 0.000000 0.000000 10.000000 
L_rear_hand03 0.000000 0.000000 0.000000 0.000000 0.000000 0.000000 10.000000 
#Beginning of Data. Separated by tabs
#Fr	Tx	Ty	Tz	Rx	Ry	Rz	SF
[MASTER]
91 -97.512817 -9.969788 -1233.149414 0.001346 0.001923 -20.001186 1237.039063
92 -97.512817 -9.969788 -1233.149414 0.001346 0.001923 -20.001186 1237.039063
[root]
91 112.648125 484.688110 2155.489014 -65.109627 -51.754646 -117.633385 2212.180908
92 112.648125 484.688110 2155.489014 -65.109589 -51.754620 -117.633369 2212.180908
[chest]
91 -84.512650 -34.090519 0.000000 -6.004066 -2.201438 169.199860 91.129311
92 -84.512650 -34.090519 0.000000 -6.167184 -2.260075 169.498795 91.129311
[L_mid_tent01]
91 27.298754 22.179394 -249.918777 37.916870 60.890236 128.623489 252.381729
92 27.298754 22.179394 -249.918777 38.187645 60.967281 128.949661 252.381729
[R_mid_tent01]
91 23.228794 24.509907 226.238495 29.492598 -62.071899 -144.891953 228.744751
92 23.228794 24.509907 226.238495 29.492594 -62.071892 -144.891953 228.744751
[spine01]
91 -0.361383 -0.195265 0.000000 -0.000001 -0.000007 22.052340 0.410763
92 -0.361383 -0.195265 0.000000 -0.000001 -0.000007 22.052340 0.410763
[Bip01_Neck]
91 165.484543 71.581718 0.000119 176.643677 -1.657967 43.431911 180.302734
92 165.484543 71.581718 0.000119 176.643677 -1.657967 43.431911 180.302734
[L_humerus]
91 -13.983130 -135.272980 -120.471481 178.964996 1.892241 -146.979980 181.680161
92 -13.983130 -135.272980 -120.471481 178.964996 1.892242 -146.979980 181.680161
[R_humerus]
91 -13.983309 -135.273102 125.287651 176.357590 6.146129 -145.149719 184.909012
92 -13.983309 -135.273102 125.287651 176.357590 6.146129 -145.149719 184.909012
[weapon_bone]
91 235.964890 -300.705902 0.000000 0.000000 -89.951546 -128.212341 382.234833
92 235.964890 -300.705902 0.000000 0.000000 -89.951546 -128.212341 382.234833
[Bip01_Head]
91 201.499146 183.025162 -16.095867 4.483528 20.020046 -44.177437 272.688843
92 201.499146 183.025162 -16.095871 4.483528 20.020046 -44.177437 272.688843
[eye_left_bone]
91 -24.626970 125.451866 -64.772606 0.000000 -90.000000 -99.840431 143.318359
92 -24.626970 125.451866 -64.772606 0.000000 -90.000000 -99.840431 143.318359
[eye_right_bone]
91 -24.626970 125.451866 64.327362 0.000000 -89.965736 80.156380 143.117676
92 -24.626970 125.451866 64.327362 0.000000 -89.965736 80.156380 143.117676
[L_forearm]
91 322.776093 0.000000 -0.000119 0.001130 -0.002057 -147.582275 322.776093
92 322.776093 0.000000 -0.000119 0.001130 -0.002057 -147.582291 322.776093
[L_front_hand]
91 241.149185 -0.042021 -3.300071 -154.399323 -1.835936 -27.423937 241.171753
92 241.149185 -0.042021 -3.300071 -154.425156 -1.836707 -27.424885 241.171753
[L_weapon_bone]
91 156.183838 0.000000 0.000000 0.000014 0.000007 0.000001 156.183838
92 156.183838 0.000000 0.000000 0.000014 0.000007 0.000001 156.183838
[L_front_hand01_01]
91 86.095154 20.947098 -0.655860 -0.366594 -0.477154 75.385574 88.609184
92 86.095154 20.947098 -0.655860 -0.366594 -0.477154 75.385574 88.609184
[L_front_hand02_01]
91 86.935165 -11.437475 24.513514 154.399826 -59.883842 -61.369606 91.046425
92 86.935165 -11.437475 24.513514 154.399796 -59.883835 -61.369587 91.046425
[L_front_hand03_01]
91 86.637497 -14.123976 -20.424902 -153.913879 58.118130 -62.702892 90.126129
92 86.637497 -14.123976 -20.424902 -153.913849 58.118122 -62.702866 90.126129
[L_front_hand01_02]
91 71.020905 -0.000179 0.000030 0.000334 -0.002323 -106.379684 71.020905
92 71.020905 -0.000179 0.000030 0.000334 -0.002323 -106.379684 71.020905
[L_front_hand02_02]
91 71.020927 -0.000119 0.000060 0.000334 -0.002323 -106.379684 71.020927
92 71.020927 -0.000119 0.000060 0.000334 -0.002323 -106.379684 71.020927
[L_front_hand03_02]
91 71.020905 -0.000060 0.000060 0.000334 -0.002323 -106.379684 71.020905
92 71.020905 -0.000060 0.000060 0.000334 -0.002323 -106.379684 71.020905
[R_forearm]
91 322.776428 -0.000060 0.000030 0.114825 0.181654 -148.389832 322.776428
92 322.776428 -0.000060 0.000030 0.114825 0.181654 -148.389832 322.776428
[R_front_hand]
91 238.847015 -0.006795 2.210259 -2.635298 -10.645461 -26.312506 238.857239
92 238.847015 -0.006795 2.210259 -2.635298 -10.645461 -26.312506 238.857239
[R_weapon_bone]
91 155.664093 0.002503 -0.000030 0.003487 0.001180 -90.988930 155.664078
92 155.664093 0.002503 -0.000030 0.003487 0.001180 -90.988930 155.664078
[R_front_hand01_01]
91 87.624611 14.231146 22.918642 -154.633514 -59.950634 61.746063 91.683487
92 87.624611 14.231146 22.918642 -154.633499 -59.950619 61.746044 91.683487
[R_front_hand02_01]
91 89.356956 14.367283 -19.491137 154.602661 58.302849 63.744381 92.579636
92 89.356956 14.367283 -19.491137 154.602661 58.302849 63.744389 92.579636
[R_front_hand03_01]
91 87.286232 -22.307278 -0.143439 0.162155 -0.423168 -75.767921 90.091743
92 87.286232 -22.307278 -0.143439 0.162155 -0.423168 -75.767921 90.091743
[R_front_hand01_02]
91 71.020905 0.000060 0.000119 0.002323 -0.000334 106.381714 71.020905
92 71.020905 0.000060 0.000119 0.002323 -0.000334 106.381714 71.020905
[R_front_hand02_02]
91 71.020844 -0.000030 -0.000119 0.002323 -0.000334 106.381714 71.020836
92 71.020844 -0.000030 -0.000119 0.002323 -0.000334 106.381714 71.020836
[R_front_hand03_02]
91 71.020905 0.000000 0.000030 0.002323 -0.000334 106.381714 71.020905
92 71.020905 0.000000 0.000030 0.002323 -0.000334 106.381714 71.020905
[null_rope01_connect]
91 328.732483 0.000000 -0.000238 -112.333054 -4.682790 134.682114 328.732483
92 328.732483 0.000000 -0.000238 -112.453514 -4.585765 134.618118 328.732483
[Rope1_Seg01]
91 -0.000086 0.000000 0.000000 -52.134411 36.920166 97.561058 0.000086
92 -0.000085 0.000000 0.000000 -52.217930 37.015800 97.626785 0.000085
[Rope1_Seg02]
91 139.999863 -0.000179 0.000000 -9.974743 3.815445 7.384368 139.999863
92 139.999863 -0.000179 0.000000 -9.969893 3.813592 7.413702 139.999863
[Rope1_Seg03]
91 139.999924 0.000060 -0.000060 -12.510260 4.422062 14.473198 139.999924
92 139.999924 0.000060 -0.000060 -12.478612 4.407737 14.524686 139.999924
[Rope1_Seg04]
91 139.999924 -0.000060 -0.000119 -10.663063 -0.125117 29.995501 139.999924
92 139.999924 -0.000060 -0.000119 -10.597325 -0.171844 29.991955 139.999924
[Rope1_Seg05]
91 139.999832 0.000119 -0.000060 -2.504030 -1.494627 27.011448 139.999832
92 139.999832 0.000119 -0.000060 -2.459356 -1.444846 26.888981 139.999832
[Rope1_Seg06]
91 139.999954 0.000119 -0.000060 1.832496 5.696702 11.646642 139.999954
92 139.999954 0.000119 -0.000060 1.834160 5.697345 11.629317 139.999954
[Rope1_Seg07]
91 139.999985 0.000060 0.000000 1.532903 2.716473 7.957047 139.999985
92 139.999985 0.000060 0.000000 1.531095 2.700122 7.952350 139.999985
[Rope1_Seg09]
91 121.602913 0.000119 -0.000089 -89.793175 -1.359789 0.847147 121.602913
92 121.602913 0.000119 -0.000089 -89.793175 -1.359789 0.847147 121.602913
[L_mid_hand01]
91 103.859421 1.038730 8.195221 130.544373 -67.584534 -38.866943 104.187431
92 103.859421 1.038730 8.195221 130.544373 -67.584534 -38.866943 104.187431
[L_mid_hand02]
91 105.572853 -4.139662 -10.864139 -168.923172 43.409309 -73.498894 106.211075
92 105.572853 -4.139662 -10.864139 -168.923172 43.409309 -73.498886 106.211075
[L_mid_hand03]
91 104.641464 17.579376 -3.913581 -6.012626 17.808172 74.893661 106.179977
92 104.641464 17.579376 -3.913581 -6.012627 17.808174 74.893669 106.179977
[null_rope02_connect]
91 328.732849 0.000179 -0.000119 -95.537643 0.841558 -4.719750 328.732849
92 328.732849 0.000179 -0.000119 -95.537643 0.841558 -4.719750 328.732849
[Rope2_Seg01]
91 0.000086 0.000000 0.000000 90.490509 13.933368 27.439957 0.000086
92 0.000085 0.000000 0.000000 90.485817 13.871443 27.384691 0.000085
[Rope2_Seg02]
91 139.999741 -0.000060 -0.000119 -2.794677 -6.840137 -12.263353 139.999756
92 139.999741 -0.000060 -0.000119 -2.825520 -6.860996 -12.345255 139.999756
[Rope2_Seg03]
91 140.000107 0.000030 0.000000 -4.345687 -11.319553 -22.572216 140.000107
92 140.000107 0.000030 0.000000 -4.371306 -11.308455 -22.662697 140.000107
[Rope2_Seg04]
91 139.999802 0.000000 -0.000060 -4.373142 -11.378977 -28.742132 139.999802
92 139.999802 0.000000 -0.000060 -4.357823 -11.220010 -28.603979 139.999802
[Rope2_Seg05]
91 139.999985 -0.000060 0.000119 -1.034923 4.168033 -7.441798 139.999985
92 139.999985 -0.000060 0.000119 -1.021833 4.156765 -7.398201 139.999985
[Rope2_Seg06]
91 139.999893 -0.000030 -0.000119 -0.076144 6.116530 -1.245576 139.999893
92 139.999893 -0.000030 -0.000119 -0.081940 6.052505 -1.300281 139.999893
[Rope2_Seg07]
91 139.999893 0.000060 -0.000060 -0.026064 2.578814 -3.063114 139.999893
92 139.999893 0.000060 -0.000060 -0.024327 2.560557 -3.081041 139.999893
[Rope2_Seg09]
91 121.338966 0.000089 -0.000060 33.793236 -1.359788 -0.847141 121.338966
92 121.338966 0.000089 -0.000060 33.793236 -1.359788 -0.847141 121.338966
[R_mid_hand01]
91 104.680779 11.144459 -10.335981 -16.212063 45.237247 70.462852 105.778534
92 104.680779 11.144459 -10.335981 -16.212067 45.237247 70.462852 105.778534
[R_mid_hand02]
91 104.070427 2.443552 8.231699 49.067368 -67.749771 39.286453 104.424065
92 104.070427 2.443552 8.231699 49.067368 -67.749771 39.286453 104.424065
[R_mid_hand03]
91 106.028137 -11.221827 -5.996406 -177.101105 15.551026 -76.585571 106.788818
92 106.028137 -11.221827 -5.996406 -177.101105 15.551026 -76.585571 106.788818
[spine02]
91 129.756927 0.001550 0.000119 0.537370 -4.023948 -15.451880 129.756927
92 129.756927 0.001550 0.000119 0.535758 -4.024163 -15.431392 129.756927
[spine03]
91 78.613892 0.081615 -4.899030 2.000531 3.776600 18.054420 78.766434
92 78.613892 0.081617 -4.899030 1.999815 3.776849 18.043306 78.766434
[pelvis]
91 169.435242 0.051022 0.000000 -0.070379 -0.177717 17.298191 169.435257
92 169.435242 0.051022 0.000000 -0.070332 -0.177736 17.268183 169.435257
[null_rope03_connect]
91 -1.257226 -2.466202 137.391083 -57.403915 -59.269287 163.969742 137.418976
92 -1.257226 -2.466202 137.391083 -57.406551 -59.268570 163.988464 137.418976
[null_rope04_connect]
91 -1.259640 -2.480268 -137.844437 -57.403915 -59.269287 163.969742 137.872513
92 -1.259640 -2.480268 -137.844437 -57.406551 -59.268570 163.988464 137.872513
[Rope3_Seg01]
91 0.000000 0.000067 0.000000 27.616985 -61.159603 -80.501259 0.000067
92 0.000000 0.000067 0.000000 27.614765 -61.177269 -80.493019 0.000067
[Rope3_Seg02]
91 139.999924 -0.000119 0.000060 -11.074368 29.222401 -15.393471 139.999924
92 139.999924 -0.000119 0.000060 -11.077297 29.224516 -15.400863 139.999924
[Rope3_Seg03]
91 139.999924 -0.000119 0.000119 -1.410494 19.546722 -1.577455 139.999924
92 139.999924 -0.000119 0.000119 -1.412923 19.556665 -1.584154 139.999924
[Rope3_Seg04]
91 139.999924 0.000119 0.000000 -3.121926 23.258373 -16.724033 139.999924
92 139.999924 0.000119 0.000000 -3.121280 23.257120 -16.721869 139.999924
[Rope3_Seg05]
91 139.999924 -0.000238 0.000060 -9.831292 30.804840 -30.328243 139.999924
92 139.999924 -0.000238 0.000060 -9.831464 30.805449 -30.329046 139.999924
[Rope3_Seg06]
91 139.999893 -0.000119 -0.000060 -1.489350 10.966323 -8.303437 139.999893
92 139.999893 -0.000119 -0.000060 -1.489766 10.967975 -8.304892 139.999893
[Rope3_Seg07]
91 139.999771 0.000060 -0.000119 -0.244942 5.300503 -3.827902 139.999771
92 139.999771 0.000060 -0.000119 -0.244969 5.300884 -3.828211 139.999771
[Rope3_Seg08]
91 139.999985 -0.000060 0.000000 0.187147 2.742975 -1.965382 139.999985
92 139.999985 -0.000060 0.000000 0.184563 2.744175 -1.969153 139.999985
[Rope3_Seg09]
91 90.185997 -0.000179 -0.000060 89.793228 -1.359877 -0.847183 90.185997
92 90.185997 -0.000179 -0.000060 89.793228 -1.359877 -0.847183 90.185997
[R_rear_hand01]
91 103.366196 -6.073594 -10.757982 -177.714203 24.565960 -73.910950 104.101845
92 103.366196 -6.073594 -10.757982 -177.714203 24.565960 -73.910950 104.101845
[R_rear_hand02]
91 100.509819 12.039542 -7.992327 -12.874829 36.868488 72.167213 101.543350
92 100.509819 12.039542 -7.992327 -12.874834 36.868492 72.167213 101.543350
[R_rear_hand03]
91 101.539970 5.215704 5.435467 71.484581 -71.816628 21.513813 101.819031
92 101.539970 5.215704 5.435467 71.484634 -71.816666 21.513840 101.819031
[Rope4_Seg01]
91 -0.000133 0.000000 0.000000 32.326290 -4.373068 134.542938 0.000133
92 -0.000135 0.000000 0.000000 32.335007 -4.372243 134.532532 0.000135
[Rope4_Seg02]
91 139.999985 0.000060 0.000119 -3.861963 24.146461 13.747787 139.999985
92 139.999985 0.000060 0.000119 -3.946443 24.132872 13.765877 139.999985
[Rope4_Seg03]
91 139.999924 0.000000 -0.000238 -157.071350 16.934443 12.117503 139.999924
92 139.999924 0.000000 -0.000238 -156.665771 16.890100 12.161310 139.999924
[Rope4_Seg04]
91 139.999985 0.000000 0.000119 -6.050795 -16.593014 -4.236803 139.999985
92 139.999985 0.000000 0.000119 -6.294966 -16.627861 -4.134801 139.999985
[Rope4_Seg05]
91 139.999802 -0.000060 -0.000119 -0.479921 -13.413133 -5.227337 139.999802
92 139.999802 -0.000060 -0.000119 -0.553360 -13.445989 -5.183833 139.999802
[Rope4_Seg06]
91 139.999924 0.000000 0.000060 -0.053820 -7.096070 -2.861870 139.999924
92 139.999924 0.000000 0.000060 -0.064046 -7.103742 -2.853807 139.999924
[Rope4_Seg07]
91 139.999802 0.000000 0.000000 0.050454 -4.605456 -1.869782 139.999802
92 139.999802 0.000000 0.000000 0.043685 -4.612163 -1.862917 139.999802
[Rope4_Seg08]
91 139.999924 0.000000 0.000119 -1.504823 -2.778372 -1.123554 139.999924
92 139.999924 0.000000 0.000119 -1.509873 -2.783290 -1.117430 139.999924
[Rope4_Seg09]
91 90.185791 0.000060 0.000060 -135.617828 2.228885 0.850567 90.185791
92 90.185791 0.000060 0.000060 -135.617828 2.228885 0.850567 90.185791
[L_rear_hand01]
91 101.696655 -8.392275 -7.654577 -12.874829 -36.868488 107.832764 102.329041
92 101.696655 -8.392275 -7.654577 -12.874829 -36.868488 107.832764 102.329041
[L_rear_hand02]
91 102.726799 -1.568258 5.773216 71.484581 71.816628 158.486160 102.900848
92 102.726799 -1.568258 5.773216 71.484581 71.816643 158.486160 102.900848
[L_rear_hand03]
91 104.552910 9.721220 -10.420293 -177.714203 -24.565960 -106.089035 105.519653
92 104.552910 9.721220 -10.420293 -177.714203 -24.565960 -106.089035 105.519653
